<svg width="984" height="920" viewBox="0 0 984 920" fill="none" xmlns="http://www.w3.org/2000/svg">
<path fill-rule="evenodd" clip-rule="evenodd" d="M435.498 289.318C474.717 340.729 546.27 361.707 563.603 424.921C580.03 484.831 550.854 545.242 515.166 579.868C480.682 613.325 423.819 592.382 378.444 604.569C330.906 617.337 288.828 689.732 242.633 653.066C191.158 612.209 206.41 522.051 189.084 454.27C180.259 419.748 161.292 385.261 165.789 352.453C169.861 322.746 210.916 319.81 211.73 289.04C213.233 232.266 155.754 169.386 171.969 119.036C186.488 73.95 239.5 53.4733 283.025 67.6522C327.16 82.03 352.132 143.349 382.608 187.655C404.464 219.43 412.267 258.863 435.498 289.318Z" fill="#F6D79C"/>
<path fill-rule="evenodd" clip-rule="evenodd" d="M235.589 393.778C297.049 397.846 365.255 372.835 412.347 412.537C460.575 453.194 455.018 524.554 464.657 586.892C476.525 663.644 516.448 745.831 473.933 810.824C427.975 881.082 336.937 913.816 253.053 910.374C173.801 907.122 99.827 859.878 56.1315 793.68C19.3143 737.902 54.7237 667.522 48.813 600.95C42.1836 526.286 -30.2077 442.237 19.9844 386.564C70.0395 331.043 160.999 388.841 235.589 393.778Z" fill="#FDE9C2"/>
<path fill-rule="evenodd" clip-rule="evenodd" d="M798.907 367.633C854.126 420.316 943.526 447.942 962.489 524.276C976.339 580.028 920.853 639.503 872.597 664.264C821.434 690.516 754.354 629.918 703.624 657.103C646.679 687.619 650.692 804.558 587.901 816.825C532.14 827.718 503.906 735.287 453.904 705.886C406.928 678.265 307.266 706.917 303.94 649.857C298.806 561.752 423.737 519.2 437.97 432.469C444.694 391.496 368.768 385.601 353.636 347.032C338.516 308.495 345.67 263.554 355.992 223.522C367.532 178.768 385.405 134.271 416.728 102.342C449.242 69.2001 492.422 28.5896 536.48 39.5457C587.866 52.3239 593.95 161.975 646.503 159.481C728.652 155.582 809.921 -50.2895 854.202 24.4653C906.805 113.27 749.344 202.139 732.755 305.091C727.733 336.255 776.702 346.448 798.907 367.633Z" fill="#FFCD6F"/>
</svg>
