<svg width="26" height="26" viewBox="0 0 26 26" fill="none" xmlns="http://www.w3.org/2000/svg">
<path d="M4.57377 21.4262C5.0763 21.9294 5.67332 22.3284 6.33052 22.6002C6.98773 22.872 7.69216 23.0113 8.40335 23.01C9.1147 23.0112 9.81929 22.872 10.4767 22.6002C11.134 22.3284 11.7313 21.9294 12.234 21.4262L15.2977 18.3614L13.7659 16.8296L10.7022 19.8943C10.0917 20.5021 9.26533 20.8433 8.4039 20.8433C7.54246 20.8433 6.7161 20.5021 6.1056 19.8943C5.49732 19.2841 5.15575 18.4577 5.15575 17.596C5.15575 16.7344 5.49732 15.908 6.1056 15.2978L9.17035 12.2341L7.63852 10.7022L4.57377 13.7659C3.55956 14.7826 2.98999 16.16 2.98999 17.596C2.98999 19.0321 3.55956 20.4095 4.57377 21.4262ZM21.4261 12.2341C22.4398 11.2171 23.009 9.83983 23.009 8.40396C23.009 6.96809 22.4398 5.59077 21.4261 4.57383C20.4094 3.55962 19.032 2.99005 17.596 2.99005C16.1599 2.99005 14.7825 3.55962 13.7659 4.57383L10.7022 7.63858L12.234 9.17042L15.2977 6.10567C15.9082 5.49791 16.7345 5.1567 17.596 5.1567C18.4574 5.1567 19.2838 5.49791 19.8943 6.10567C20.5026 6.71588 20.8441 7.54235 20.8441 8.40396C20.8441 9.26557 20.5026 10.092 19.8943 10.7022L16.8295 13.7659L18.3614 15.2978L21.4261 12.2341Z" fill="black"/>
<path d="M9.16939 18.3625L7.63647 16.8307L16.8307 7.63751L18.3626 9.17043L9.16939 18.3625Z" fill="black"/>
</svg>
