<svg width="23" height="23" viewBox="0 0 23 23" fill="none" xmlns="http://www.w3.org/2000/svg">
<g clip-path="url(#clip0_317_119)">
<path d="M2.59199 8.66992L3.01426 9.40664C3.38711 10.058 3.99805 10.5387 4.72129 10.7453L7.32227 11.4865C8.09492 11.7066 8.625 12.4119 8.625 13.216V15.0084C8.625 15.5025 8.90352 15.9518 9.34375 16.1719C9.78398 16.392 10.0625 16.8412 10.0625 17.3354V19.0873C10.0625 19.7881 10.7318 20.2957 11.4057 20.1025C12.1289 19.8959 12.6904 19.3164 12.8746 18.5842L13.0004 18.0811C13.1891 17.3219 13.6832 16.6705 14.3615 16.2842L14.7254 16.0775C15.3992 15.6957 15.8125 14.977 15.8125 14.2043V13.8314C15.8125 13.2609 15.5834 12.7129 15.1791 12.3086L15.0039 12.1334C14.5996 11.7291 14.0516 11.5 13.4811 11.5H11.5449C11.0463 11.5 10.5521 11.3697 10.1164 11.1227L8.5666 10.2377C8.37344 10.1254 8.2252 9.9457 8.15332 9.73457C8.00957 9.30332 8.20273 8.83613 8.61152 8.63398L8.87656 8.49922C9.17305 8.35098 9.51895 8.32402 9.8334 8.43184L10.8756 8.77773C11.2439 8.89902 11.6482 8.75977 11.8594 8.44082C12.0705 8.12637 12.048 7.70859 11.8055 7.4166L11.1945 6.68438C10.7453 6.14531 10.7498 5.35918 11.208 4.8291L11.9133 4.00703C12.3086 3.54434 12.3715 2.88398 12.0705 2.3584L11.9627 2.16973C11.8055 2.16074 11.6527 2.15625 11.4955 2.15625C7.32676 2.15625 3.79141 4.89199 2.59199 8.66992V8.66992ZM20.8438 11.5C20.8438 9.84688 20.4125 8.29258 19.6578 6.94043L18.5078 7.40313C17.8025 7.68613 17.4387 8.47227 17.6768 9.19102L18.4359 11.4686C18.5932 11.9357 18.975 12.2906 19.4512 12.4074L20.7584 12.7354C20.8123 12.3311 20.8393 11.9178 20.8393 11.5H20.8438ZM23 11.5C23 17.852 17.852 23 11.5 23C5.14805 23 0 17.852 0 11.5C0 5.14805 5.14805 0 11.5 0C17.852 0 23 5.14805 23 11.5Z" fill="black"/>
</g>
<defs>
<clipPath id="clip0_317_119">
<rect width="23" height="23" fill="white"/>
</clipPath>
</defs>
</svg>
