<svg width="92" height="92" viewBox="0 0 92 92" fill="none" xmlns="http://www.w3.org/2000/svg">
<path d="M64.4191 3.83334C61.0446 3.85811 57.6887 4.33513 54.441 5.25168L54.211 5.32068C52.1651 4.97033 50.0955 4.77682 48.0201 4.74184C43.7536 4.66901 40.0851 5.67334 37.1335 7.34851C34.2201 6.36718 28.1788 4.67668 21.8116 5.01401C17.3765 5.24784 12.5388 6.55501 8.95463 10.2273C5.37813 13.8997 3.4883 19.5807 3.88696 27.3125C3.9943 29.4477 4.61913 32.9245 5.6618 37.4325C6.6968 41.9367 8.16113 47.2075 9.98197 52.0183C11.8028 56.833 13.8 61.157 16.9203 64.0933C18.4766 65.5653 20.6195 66.8035 23.1456 66.7C24.9205 66.631 26.5266 65.8758 27.9105 64.7603C28.5851 65.6228 29.3058 65.9985 29.9613 66.3473C30.7855 66.7843 31.5905 67.0833 32.4223 67.2827C34.726 67.8723 37.125 67.991 39.4756 67.6315C40.4991 67.4667 41.5763 67.1447 42.6496 66.6847C42.688 67.8423 42.734 68.977 42.7838 70.127C42.9295 73.7687 43.0253 77.1305 44.1523 80.0783C44.3325 80.5613 44.827 83.0415 46.7858 85.2303C48.7408 87.423 52.5741 88.7877 56.9365 87.883C60.0146 87.2429 63.9323 86.089 66.5313 82.501C69.0996 78.9513 70.2611 73.8568 70.4911 65.5998C70.5486 65.1552 70.6176 64.7757 70.6905 64.4192L71.3038 64.4728H71.3728C74.658 64.6185 78.223 64.1662 81.2015 62.8245C83.8388 61.6362 85.8321 60.4402 87.285 58.3127C87.6491 57.7875 88.0478 57.1512 88.1551 56.051C88.2625 54.9585 87.6185 53.2412 86.5413 52.4515C84.3831 50.8645 83.03 51.4663 81.5771 51.7615C80.1473 52.0682 78.6906 52.2368 77.2225 52.2713C81.4123 45.4327 84.4138 38.1647 86.1273 31.7323C87.1393 27.9373 87.7105 24.4375 87.7565 21.3785C87.8025 18.3195 87.5456 15.6093 85.6558 13.2633C79.7486 5.94168 71.4418 3.91768 65.0171 3.84868C64.8178 3.84484 64.6185 3.84101 64.4191 3.84484V3.83334ZM64.2505 6.08351C70.3263 6.02601 78.0926 7.68201 83.6663 14.5935C84.9198 16.146 85.2916 18.4153 85.2495 21.2137C85.2035 24.0082 84.6706 27.3508 83.697 31.0155C81.8071 38.1148 78.2345 46.3872 73.2013 53.8162C73.3804 53.9393 73.5734 54.0409 73.7763 54.119C74.8266 54.5407 77.2186 54.901 81.9988 53.9503C83.1986 53.7012 84.0803 53.5363 84.9926 54.211C85.2114 54.3918 85.3852 54.621 85.5003 54.8804C85.6153 55.1399 85.6686 55.4225 85.6558 55.706C85.606 56.1344 85.4433 56.5418 85.1843 56.8867C84.2643 58.2322 82.4396 59.5087 80.1013 60.559C78.0351 61.4943 75.0681 61.9812 72.4385 62.0118C71.1198 62.0233 69.9046 61.9237 68.8735 61.6132L68.8045 61.5902C68.4058 65.3123 67.4896 72.6685 66.8955 76.0227C66.4163 78.729 65.5806 80.8795 63.9821 82.4895C62.3875 84.0995 60.1335 85.0694 57.0975 85.7019C53.337 86.4838 50.5961 85.6405 48.829 84.1954C47.0656 82.7579 46.2568 80.845 45.77 79.672C45.4365 78.867 45.264 77.8205 45.0953 76.4213C44.9101 74.7462 44.7861 73.0648 44.7235 71.3805C44.6129 68.4264 44.5771 65.4699 44.6161 62.514C43.0445 63.9093 41.0895 64.837 38.9926 65.1858C36.501 65.596 34.27 65.1935 32.9398 64.8715C32.2876 64.7111 31.657 64.473 31.0615 64.1623C30.4405 63.8442 29.854 63.4838 29.463 62.7708C29.2326 62.3639 29.159 61.8867 29.256 61.4292C29.3812 60.9643 29.6594 60.5551 30.0456 60.2677C30.7663 59.7003 31.7131 59.386 33.143 59.0947C35.7496 58.5772 36.6581 58.2207 37.2101 57.7952C37.6816 57.431 38.2145 56.695 39.1575 55.6102C39.1529 55.563 39.149 55.5157 39.146 55.4683C37.4644 55.4227 35.8158 54.9912 34.3275 54.2072C33.787 54.763 31.0116 57.6112 27.6268 61.5595C26.2046 63.2117 24.633 64.1585 22.9731 64.2275C21.3133 64.2965 19.8145 63.4838 18.5418 62.2878C15.9926 59.8882 13.961 55.7597 12.19 51.0945C10.4266 46.4255 8.9853 41.2275 7.96563 36.8C6.9383 32.3725 6.33263 28.8037 6.2483 27.0825C5.86496 19.7647 7.6283 14.835 10.6566 11.7262C13.685 8.61734 17.8326 7.44051 21.8806 7.21434C29.141 6.80801 36.0371 9.26518 37.4325 9.79418C40.1196 8.02318 43.5811 6.91918 47.909 6.98818C49.9603 7.01623 52.0021 7.27338 53.9963 7.75484L54.0691 7.72418C54.947 7.42518 55.8401 7.17218 56.7448 6.97284C59.2074 6.41588 61.722 6.12036 64.2466 6.09118V6.08351H64.2505ZM64.7986 8.43718H64.2735C62.1995 8.46516 60.1329 8.69108 58.1018 9.11184C62.1336 10.8675 65.6759 13.5808 68.4211 17.0162C70.0836 19.0718 71.4631 21.3408 72.5228 23.7628C72.9215 24.6905 73.1898 25.4763 73.3393 26.082C73.416 26.3887 73.4696 26.6455 73.485 26.9138C73.4997 27.0837 73.4855 27.2548 73.4428 27.4198L73.4198 27.4658C73.531 30.544 72.7451 32.6293 72.6493 35.5657C72.5765 37.697 73.1361 40.2002 73.2741 42.9257C73.4045 45.494 73.0863 48.3115 71.369 51.0792C71.5146 51.2478 71.645 51.4165 71.783 51.5852C76.3255 44.6468 79.603 36.9648 81.3471 30.4213C82.2786 26.8947 82.777 23.7015 82.8191 21.1715C82.8575 18.6415 82.3706 16.8053 81.7496 16.0425C76.889 10.0127 70.3148 8.47551 64.7986 8.43334V8.43718ZM47.4528 9.33801C43.171 9.34568 40.0966 10.603 37.7698 12.4813C35.3663 14.4248 33.7563 17.0813 32.6983 19.8068C31.6741 22.5305 31.048 25.3876 30.8391 28.29L30.889 28.2632C32.1808 27.5578 33.879 26.8563 35.696 26.45C37.5168 26.0437 39.4756 25.9172 41.2505 26.5842C43.0253 27.255 44.4935 28.8228 45.0263 31.2072C47.5755 42.6535 44.2328 46.9085 42.9985 50.117C42.5314 51.2804 42.1308 52.4693 41.7986 53.6782C41.9558 53.6398 42.113 53.6015 42.2663 53.5862C42.9397 53.5497 43.6115 53.6815 44.2213 53.9695C45.4633 54.4678 46.3143 55.5105 46.7743 56.7065C46.8931 57.0208 46.9813 57.3582 47.0311 57.7032C47.0848 57.8488 47.1078 57.9983 47.104 58.1517C46.9664 62.5285 46.9817 66.9089 47.15 71.2847C47.2343 73.1784 47.357 74.842 47.5141 76.1568C47.6675 77.4678 47.8898 78.4645 48.0316 78.8018C48.4916 79.9288 49.1701 81.4008 50.3968 82.4013C51.6235 83.398 53.3753 84.065 56.5838 83.398C59.3668 82.8192 61.0841 82.018 62.2341 80.8565C63.3765 79.7027 64.0626 78.0965 64.4996 75.6317C65.1551 71.9402 66.4738 61.2413 66.631 59.225C66.562 57.7108 66.792 56.5417 67.2903 55.6523C67.8078 54.74 68.6051 54.1803 69.2913 53.8775C69.6363 53.7242 69.9583 53.6245 70.2228 53.5517C69.9421 53.1609 69.648 52.7799 69.3411 52.4093C68.3528 51.2476 67.5404 49.947 66.93 48.5492C66.6384 47.9729 66.3278 47.4066 65.9985 46.851C65.5193 46.0077 64.9098 44.9535 64.2735 43.769C62.997 41.3962 61.6093 38.5212 60.8886 35.719C60.1718 32.9245 60.0645 30.0303 61.9045 27.9872C63.5375 26.174 66.3971 25.4227 70.6943 25.8443C70.5678 25.4763 70.4911 25.1697 70.2765 24.679C69.3016 22.4545 68.0344 20.3699 66.5083 18.4805C62.8666 13.9648 56.9748 9.48751 47.8668 9.34184H47.4528V9.33801ZM23.3948 9.51818C22.9348 9.51818 22.4748 9.53351 22.0148 9.55651C18.3578 9.75968 14.9001 10.7908 12.4276 13.3362C9.94746 15.8777 8.3183 20.0483 8.67097 26.956C8.7438 28.2593 9.3303 31.924 10.3346 36.271C11.339 40.6257 12.765 45.7432 14.4746 50.2627C16.1843 54.786 18.262 58.7228 20.2323 60.5858C21.2251 61.5173 22.0876 61.893 22.8696 61.8623C23.6555 61.824 24.5985 61.387 25.7561 60.0415C27.8645 57.5744 30.0506 55.1748 32.3111 52.8463C30.7146 51.5063 29.4852 49.7822 28.7385 47.8362C28.0014 45.9075 27.7769 43.8208 28.0868 41.7795C28.4586 39.1805 28.5085 36.7502 28.4663 34.8335C28.4203 32.9628 28.2823 31.7208 28.2823 30.9427V30.8353C28.2788 26.7841 29.0047 22.7653 30.4251 18.9712C31.4371 16.3568 32.9475 13.7003 35.213 11.5498C32.9896 10.8407 29.0413 9.75968 24.7671 9.55651C24.3075 9.53254 23.8474 9.51976 23.3871 9.51818H23.3948ZM68.2985 28.0792C65.8413 28.1098 64.4613 28.727 63.7368 29.532C62.7095 30.6743 62.6136 32.6753 63.25 35.144C63.8825 37.6127 65.1935 40.3765 66.4278 42.6688C67.0411 43.8188 67.6391 44.8538 68.1221 45.6895C68.609 46.5328 68.9655 47.1308 69.1801 47.6445C69.3795 48.1122 69.6018 48.5262 69.8241 48.9133C70.7748 46.9622 70.9473 45.0493 70.8476 43.0522C70.7211 40.5835 70.1308 38.0573 70.219 35.5005C70.3148 32.5105 70.9243 30.5593 70.978 28.2478C70.0892 28.1362 69.1943 28.0798 68.2985 28.0792ZM38.4751 28.4817C37.7243 28.4887 36.9764 28.576 36.2441 28.7423C34.7887 29.0851 33.3841 29.616 32.0658 30.3217C31.625 30.5517 31.1995 30.82 30.8008 31.1228L30.7241 31.1918C30.7471 31.7055 30.8506 32.9513 30.8966 34.7798C30.935 36.7847 30.889 39.3415 30.4903 42.1015C29.624 48.1122 34.1166 53.0878 39.399 53.0955C39.7056 51.8612 40.2155 50.6115 40.7215 49.2928C42.1935 45.448 45.0876 42.6458 42.6496 31.7017C42.251 29.9115 41.4613 29.187 40.3726 28.7768C39.7624 28.5676 39.1201 28.4677 38.4751 28.4817ZM67.1485 29.1985H67.3325C67.5701 29.2062 67.7925 29.233 67.9841 29.2752C68.1605 29.3103 68.3292 29.3765 68.4825 29.4707C68.5518 29.5123 68.6118 29.5679 68.6586 29.6339C68.7055 29.6999 68.7382 29.7748 68.7546 29.854V29.8847C68.7607 30.0527 68.7152 30.2186 68.6243 30.36C68.5167 30.5529 68.3825 30.7297 68.2256 30.8852C67.8548 31.2803 67.3647 31.5429 66.8303 31.6327C66.3068 31.6947 65.7786 31.5653 65.343 31.2685C65.1667 31.154 65.0079 31.0145 64.8715 30.8545C64.7543 30.731 64.6746 30.5768 64.6415 30.4098C64.6334 30.3279 64.6429 30.2451 64.6693 30.1671C64.6957 30.0891 64.7385 30.0177 64.7948 29.9575C64.9151 29.8263 65.0596 29.7196 65.2203 29.6432C65.8259 29.3599 66.4839 29.2058 67.1523 29.1908V29.1985H67.1485ZM38.8278 29.7888C39.0195 29.7888 39.2226 29.808 39.4296 29.8348C39.9816 29.9115 40.4761 30.0533 40.8518 30.2642C41.0358 30.36 41.1968 30.4827 41.3348 30.636C41.4065 30.7177 41.4612 30.8128 41.4958 30.9158C41.5301 31.0182 41.5419 31.1267 41.5303 31.234C41.4946 31.437 41.3999 31.6249 41.2581 31.7745C41.1095 31.9528 40.9351 32.1078 40.7406 32.2345C40.2647 32.559 39.687 32.6994 39.1153 32.6293C38.5347 32.5373 38.0009 32.2556 37.5973 31.8282C37.4273 31.6582 37.2827 31.4645 37.168 31.2532C37.0486 31.0694 36.9958 30.8502 37.0185 30.6322C37.0721 30.2488 37.398 30.0572 37.7085 29.9422C38.0681 29.8317 38.4444 29.785 38.8201 29.8042L38.8278 29.7888ZM71.6411 55.5948H71.6296C71.0968 55.7865 70.6598 55.8632 70.288 56.0165C69.9181 56.1548 69.6114 56.4233 69.4255 56.7717C69.1955 57.1742 69.0038 57.891 69.0613 59.11C69.2262 59.2196 69.4073 59.3024 69.598 59.3553C70.2151 59.5393 71.254 59.662 72.4155 59.6428C74.7231 59.616 77.5675 59.0947 79.0778 58.4123C80.316 57.8527 81.466 57.1243 82.4933 56.2503C77.4448 57.2623 74.5966 56.994 72.8448 56.2925C72.4115 56.1187 72.0059 55.8824 71.6411 55.591V55.5948ZM42.5538 55.9245H42.4771C42.2855 55.9398 42.0056 56.0012 41.469 56.5838C40.204 57.9562 39.767 58.8148 38.7243 59.6198C37.6893 60.4248 36.3361 60.8503 33.6375 61.387C32.7826 61.5557 32.2958 61.7435 31.9661 61.893C32.0735 61.9773 32.062 62.0003 32.2191 62.0808C32.614 62.2917 33.1238 62.4757 33.5301 62.5792C34.6916 62.859 36.5968 63.1887 38.5863 62.859C40.572 62.5294 42.642 61.6055 44.4053 59.2058C44.712 58.7918 44.7426 58.1785 44.4935 57.5192C44.2366 56.8675 43.6846 56.3002 43.2936 56.1392C43.0596 56.0313 42.8099 55.9614 42.5538 55.9322V55.9245Z" fill="black"/>
</svg>
