<svg width="60" height="60" viewBox="0 0 60 60" fill="none" xmlns="http://www.w3.org/2000/svg">
<g clip-path="url(#clip0_4_29)">
<path d="M33.8438 30C33.8438 39.3188 26.2688 46.875 16.92 46.875C14.701 46.878 12.5031 46.4438 10.4519 45.5974C8.40066 44.7509 6.53624 43.5088 4.96507 41.9418C3.3939 40.3748 2.14676 38.5137 1.29485 36.4647C0.442944 34.4157 0.00295278 32.219 0 30C0 20.6775 7.575 13.125 16.92 13.125C19.1393 13.1216 21.3376 13.5553 23.3893 14.4016C25.4409 15.2478 27.3058 16.4899 28.8774 18.0569C30.4489 19.624 31.6964 21.4853 32.5485 23.5345C33.4007 25.5837 33.8408 27.7807 33.8438 30ZM52.4062 30C52.4062 38.775 48.6188 45.885 43.9463 45.885C39.2738 45.885 35.4863 38.7713 35.4863 30C35.4863 21.225 39.2738 14.115 43.9463 14.115C48.6188 14.115 52.4062 21.2288 52.4062 30ZM60 30C60 37.86 58.6688 44.2313 57.0225 44.2313C55.38 44.2313 54.0488 37.8563 54.0488 30C54.0488 22.14 55.38 15.7688 57.0262 15.7688C58.6688 15.7688 60 22.14 60 30Z" fill="black"/>
</g>
<defs>
<clipPath id="clip0_4_29">
<rect width="60" height="60" fill="white"/>
</clipPath>
</defs>
</svg>
