<svg width="89" height="89" viewBox="0 0 89 89" fill="none" xmlns="http://www.w3.org/2000/svg">
<path d="M65.3261 25.4206V33.6698C65.2925 36.7539 64.0644 39.7048 61.8999 41.902C59.7353 44.0992 56.8031 45.3715 53.7199 45.4512H35.1634C32.6892 45.5005 30.3324 46.5156 28.5966 48.2795C26.8608 50.0433 25.8837 52.4161 25.874 54.8908V72.5795C25.874 77.6136 30.2517 80.5784 35.1634 82.0218C41.2046 83.9113 47.6787 83.9113 53.7199 82.0218C58.398 80.6674 63.0093 77.9418 63.0093 72.5823V65.4984H44.4528V63.1372H72.2987C77.6971 63.1372 79.7107 59.3713 81.588 53.7198C83.495 47.5694 83.495 40.9856 81.588 34.8352C80.253 29.4618 77.7054 25.4178 72.2987 25.4178L65.3261 25.4206ZM54.8908 70.221C55.5937 70.2105 56.2838 70.4095 56.8732 70.7926C57.4626 71.1757 57.9246 71.7256 58.2003 72.3722C58.4761 73.0188 58.5532 73.7329 58.4217 74.4234C58.2902 75.114 57.9561 75.7497 57.462 76.2497C56.9679 76.7498 56.3361 77.0914 55.6472 77.2311C54.9583 77.3708 54.2433 77.3022 53.5935 77.0341C52.9437 76.7661 52.3883 76.3106 51.9982 75.7258C51.6082 75.141 51.401 74.4534 51.4031 73.7504C51.3995 73.2893 51.4868 72.832 51.6603 72.4047C51.8337 71.9774 52.0897 71.5885 52.4138 71.2603C52.7378 70.9322 53.1234 70.6712 53.5484 70.4924C53.9735 70.3136 54.4297 70.2204 54.8908 70.2182V70.221Z" fill="black"/>
<path d="M44.0411 5.56251C41.0658 5.56618 38.0961 5.82017 35.1634 6.32179C27.3008 7.70964 25.874 10.616 25.874 15.9783V23.0566H44.4528V25.4179H18.9014C16.1667 25.3673 13.502 26.285 11.3783 28.0087C9.25457 29.7324 7.80839 32.1513 7.29527 34.838C5.55132 41.0111 5.55132 47.5467 7.29527 53.7199C8.61636 59.2184 11.7703 63.1372 17.1687 63.1372H23.5572V54.6516C23.6251 51.6007 24.8716 48.6946 27.0354 46.5427C29.1992 44.3909 32.1122 43.1604 35.1634 43.1094H53.7199C54.9499 43.1003 56.166 42.8488 57.2987 42.3694C58.4315 41.8899 59.4586 41.1919 60.3213 40.3152C61.1841 39.4385 61.8655 38.4003 62.3268 37.2601C62.788 36.1198 63.0199 34.8998 63.0093 33.6698V15.9783C62.8531 13.5301 61.8341 11.2165 60.1333 9.44853C58.4326 7.68058 56.1602 6.57273 53.7199 6.32179C50.5206 5.79845 47.283 5.54446 44.0411 5.56251ZM33.9953 11.2585C34.6972 11.248 35.3864 11.4465 35.9753 11.8286C36.5642 12.2107 37.0262 12.7593 37.3026 13.4046C37.579 14.0499 37.6574 14.7628 37.5277 15.4527C37.398 16.1426 37.0661 16.7784 36.5743 17.2793C36.0824 17.7802 35.4527 18.1236 34.7653 18.2658C34.0778 18.408 33.3636 18.3426 32.7134 18.078C32.0632 17.8133 31.5063 17.3614 31.1135 16.7795C30.7208 16.1977 30.5099 15.5122 30.5076 14.8102C30.5009 13.8772 30.8642 12.9797 31.5179 12.314C32.1715 11.6483 33.0624 11.2688 33.9953 11.2585Z" fill="black"/>
</svg>
