<svg width="60" height="60" viewBox="0 0 60 60" fill="none" xmlns="http://www.w3.org/2000/svg">
<path d="M59.8893 33.0906L51.7864 2.97279V2.96467C51.2209 1.10464 49.8741 0 48.1925 0C46.4514 0 45.0302 1.09652 44.4945 2.85908L39.1818 20.1597H20.8182L15.5056 2.85908C14.9699 1.09652 13.5487 0 11.8076 0C10.0888 0 8.64527 1.20211 8.20627 2.97279L0.110807 33.0906C-0.216583 34.2846 0.200095 35.641 1.1153 36.3964L28.5342 58.8466C28.7277 59.139 28.9956 59.3583 29.3081 59.4802L29.948 60L30.5804 59.4802C30.945 59.3421 31.2501 59.0984 31.4659 58.7573L58.8773 36.3882C59.8 35.641 60.2167 34.2846 59.8893 33.0906ZM47.8205 3.94747C47.8949 3.80127 48.0363 3.79315 48.0809 3.79315C48.1628 3.79315 48.2669 3.81752 48.3339 4.03682L52.7537 20.2653H42.8203L47.8205 3.94747ZM11.5546 4.0287C11.6215 3.81752 11.7257 3.79315 11.8076 3.79315C12.0085 3.79315 12.0233 3.80127 12.0605 3.93123L17.0681 20.2735H7.25387L11.5546 4.0287ZM3.70466 33.6185L5.80293 25.7154L20.8629 47.6621L3.70466 33.6185ZM9.20333 24.1641H18.2884L25.0445 47.256L9.20333 24.1641ZM30.0521 51.2684L22.0757 24.1641H38.0211L30.0521 51.2684ZM41.801 24.1641H50.6926L35.0448 46.9717L41.801 24.1641ZM38.7726 48.0357L54.1972 25.5611L56.3922 33.6185L38.7726 48.0357Z" fill="black"/>
</svg>
