<svg width="92" height="92" viewBox="0 0 92 92" fill="none" xmlns="http://www.w3.org/2000/svg">
<path d="M9.96656 40.595L32.1232 18.4L38.6016 24.9167C37.6816 28.175 39.1766 31.74 42.1666 33.465V54.7017C39.8666 56.005 38.3332 58.4967 38.3332 61.3333C38.3332 63.3666 39.141 65.3167 40.5787 66.7545C42.0165 68.1922 43.9666 69 45.9999 69C48.0332 69 49.9833 68.1922 51.421 66.7545C52.8588 65.3167 53.6666 63.3666 53.6666 61.3333C53.6666 58.4967 52.1332 56.005 49.8332 54.7017V36.0717L57.7682 44.0833C57.4999 44.6583 57.4999 45.31 57.4999 46C57.4999 48.0333 58.3076 49.9834 59.7454 51.4211C61.1832 52.8589 63.1332 53.6667 65.1666 53.6667C67.1999 53.6667 69.1499 52.8589 70.5877 51.4211C72.0255 49.9834 72.8332 48.0333 72.8332 46C72.8332 43.9667 72.0255 42.0166 70.5877 40.5788C69.1499 39.1411 67.1999 38.3333 65.1666 38.3333C64.4766 38.3333 63.8249 38.3333 63.2499 38.6017L53.3982 28.75C53.8742 26.9745 53.6897 25.0867 52.8789 23.437C52.0682 21.7873 50.6863 20.4878 48.9899 19.78C47.3416 19.1667 45.6166 19.0133 44.0832 19.435L37.5666 12.9567L40.5949 9.96665C43.5849 6.93832 48.4149 6.93832 51.4049 9.96665L82.0332 40.595C85.0616 43.585 85.0616 48.415 82.0332 51.405L51.4049 82.0333C48.4149 85.0617 43.5849 85.0617 40.5949 82.0333L9.96656 51.405C6.93823 48.415 6.93823 43.585 9.96656 40.595Z" fill="black"/>
</svg>
