<svg width="90" height="90" viewBox="0 0 90 90" fill="none" xmlns="http://www.w3.org/2000/svg">
<path d="M45 37.9125C48.8625 37.9125 52.0125 41.0625 52.0125 45C52.0125 48.75 48.8625 51.9375 45 51.9375C41.1375 51.9375 37.9875 48.75 37.9875 45C37.9875 41.0625 41.1375 37.9125 45 37.9125ZM27.6375 75C30 76.425 35.175 74.25 41.1375 68.625C39.1875 66.4125 37.275 64.0125 35.475 61.5C32.4531 61.2108 29.4488 60.7602 26.475 60.15C24.5625 68.175 25.275 73.6875 27.6375 75ZM30.3 53.475L29.2125 51.5625C28.8 52.65 28.3875 53.7375 28.125 54.7875C29.1375 55.0125 30.2625 55.2 31.425 55.3875L30.3 53.475ZM54.825 50.625L57.8625 45L54.825 39.375C53.7 37.3875 52.5 35.625 51.4125 33.8625C49.3875 33.75 47.25 33.75 45 33.75C42.75 33.75 40.6125 33.75 38.5875 33.8625C37.5 35.625 36.3 37.3875 35.175 39.375L32.1375 45L35.175 50.625C36.3 52.6125 37.5 54.375 38.5875 56.1375C40.6125 56.25 42.75 56.25 45 56.25C47.25 56.25 49.3875 56.25 51.4125 56.1375C52.5 54.375 53.7 52.6125 54.825 50.625ZM45 25.425C44.2875 26.25 43.5375 27.1125 42.7875 28.125H47.2125C46.4625 27.1125 45.7125 26.25 45 25.425ZM45 64.575C45.7125 63.75 46.4625 62.8875 47.2125 61.875H42.7875C43.5375 62.8875 44.2875 63.75 45 64.575ZM62.325 15C60 13.575 54.825 15.75 48.8625 21.375C50.8125 23.5875 52.725 25.9875 54.525 28.5C57.6 28.8 60.6375 29.25 63.525 29.85C65.4375 21.825 64.725 16.3125 62.325 15ZM59.7 36.525L60.7875 38.4375C61.2 37.35 61.6125 36.2625 61.875 35.2125C60.8625 34.9875 59.7375 34.8 58.575 34.6125L59.7 36.525ZM65.1375 10.0875C70.65 13.2375 71.25 21.525 68.925 31.2C78.45 34.0125 85.3125 38.6625 85.3125 45C85.3125 51.3375 78.45 55.9875 68.925 58.8C71.25 68.475 70.65 76.7625 65.1375 79.9125C59.6625 83.0625 52.2 79.4625 45 72.6C37.8 79.4625 30.3375 83.0625 24.825 79.9125C19.35 76.7625 18.75 68.475 21.075 58.8C11.55 55.9875 4.6875 51.3375 4.6875 45C4.6875 38.6625 11.55 34.0125 21.075 31.2C18.75 21.525 19.35 13.2375 24.825 10.0875C30.3375 6.9375 37.8 10.5375 45 17.4C52.2 10.5375 59.6625 6.9375 65.1375 10.0875ZM64.05 45C65.325 47.8125 66.45 50.625 67.3875 53.475C75.2625 51.1125 79.6875 47.7375 79.6875 45C79.6875 42.2625 75.2625 38.8875 67.3875 36.525C66.45 39.375 65.325 42.1875 64.05 45ZM25.95 45C24.675 42.1875 23.55 39.375 22.6125 36.525C14.7375 38.8875 10.3125 42.2625 10.3125 45C10.3125 47.7375 14.7375 51.1125 22.6125 53.475C23.55 50.625 24.675 47.8125 25.95 45ZM59.7 53.475L58.575 55.3875C59.7375 55.2 60.8625 55.0125 61.875 54.7875C61.6125 53.7375 61.2 52.65 60.7875 51.5625L59.7 53.475ZM48.8625 68.625C54.825 74.25 60 76.425 62.325 75C64.725 73.6875 65.4375 68.175 63.525 60.15C60.6375 60.75 57.6 61.2 54.525 61.5C52.725 64.0125 50.8125 66.4125 48.8625 68.625ZM30.3 36.525L31.425 34.6125C30.2625 34.8 29.1375 34.9875 28.125 35.2125C28.3875 36.2625 28.8 37.35 29.2125 38.4375L30.3 36.525ZM41.1375 21.375C35.175 15.75 30 13.575 27.6375 15C25.275 16.3125 24.5625 21.825 26.475 29.85C29.4488 29.2398 32.4531 28.7892 35.475 28.5C37.275 25.9875 39.1875 23.5875 41.1375 21.375Z" fill="black"/>
</svg>
