<svg width="90" height="90" viewBox="0 0 90 90" fill="none" xmlns="http://www.w3.org/2000/svg">
<path d="M11.25 11.25H78.75V78.75H11.25V11.25ZM28.9875 67.65C30.4875 70.8375 33.45 73.4625 38.5125 73.4625C44.1375 73.4625 48 70.4625 48 63.9V42.225H41.625V63.75C41.625 66.975 40.3125 67.8 38.25 67.8C36.075 67.8 35.175 66.3 34.1625 64.5375L28.9875 67.65ZM51.4125 66.975C53.2875 70.65 57.075 73.4625 63 73.4625C69 73.4625 73.5 70.35 73.5 64.6125C73.5 59.325 70.4625 56.9625 65.0625 54.6375L63.4875 53.9625C60.75 52.8 59.5875 52.0125 59.5875 50.1375C59.5875 48.6 60.75 47.4 62.625 47.4C64.425 47.4 65.625 48.1875 66.7125 50.1375L71.625 46.875C69.5625 43.275 66.6375 41.8875 62.625 41.8875C56.9625 41.8875 53.325 45.4875 53.325 50.25C53.325 55.425 56.3625 57.8625 60.9375 59.8125L62.5125 60.4875C65.4375 61.7625 67.1625 62.55 67.1625 64.725C67.1625 66.525 65.475 67.8375 62.85 67.8375C59.7375 67.8375 57.9375 66.225 56.5875 63.975L51.4125 66.975Z" fill="black"/>
</svg>
