<svg width="82" height="83" viewBox="0 0 82 83" fill="none" xmlns="http://www.w3.org/2000/svg">
<path d="M17.3567 0H21.0535V3.69696H24.436V0H28.1329V11.1912H24.436V7.44579H21.0535V11.1912H17.3601V0H17.3567ZM32.9914 3.71079H29.7387V0H39.9443V3.71079H36.6882V11.1912H32.9914V3.71079ZM41.5638 0H45.4178L47.7889 3.93212L50.1567 0H54.0107V11.1912H50.3309V5.644L47.7889 9.62454H47.724L45.1786 5.64746V11.1912H41.5638V0ZM55.8489 0H59.5491V7.49421H64.7424V11.1946H55.8489V0Z" fill="black"/>
<path fill-rule="evenodd" clip-rule="evenodd" d="M17.2405 76.3323L10.25 16.313H71.75L64.7561 76.3254L40.9658 83L17.2405 76.3323ZM31.3752 43.4782L30.7124 35.939H58.5412L59.1903 28.5797H22.7687L24.7298 50.841H49.9346L49.0907 60.386L40.9795 62.6062H40.9727L32.8752 60.3929L32.3558 54.5241H25.051L26.0692 66.0818L40.9658 70.2664L55.8864 66.0818L57.7041 45.4563L57.8818 43.4816H31.3752V43.4782Z" fill="black"/>
</svg>
