<svg width="63" height="60" viewBox="0 0 63 60" fill="none" xmlns="http://www.w3.org/2000/svg">
<path d="M57.0938 9.375H5.90625C4.81729 9.375 3.9375 10.2129 3.9375 11.25V48.75C3.9375 49.7871 4.81729 50.625 5.90625 50.625H57.0938C58.1827 50.625 59.0625 49.7871 59.0625 48.75V11.25C59.0625 10.2129 58.1827 9.375 57.0938 9.375ZM52.1227 15.7559L32.712 30.1406C32.2321 30.498 31.5615 30.498 31.0816 30.1406L11.6648 15.7559C11.5916 15.7021 11.538 15.6278 11.5113 15.5435C11.4847 15.4592 11.4864 15.369 11.5162 15.2857C11.5461 15.2023 11.6026 15.13 11.6777 15.0788C11.7529 15.0275 11.8431 15 11.9355 15H51.852C51.9444 15 52.0346 15.0275 52.1097 15.0788C52.1849 15.13 52.2414 15.2023 52.2713 15.2857C52.3011 15.369 52.3028 15.4592 52.2762 15.5435C52.2495 15.6278 52.1959 15.7021 52.1227 15.7559Z" fill="black"/>
</svg>
