<svg width="82" height="82" viewBox="0 0 82 82" fill="none" xmlns="http://www.w3.org/2000/svg">
<g clip-path="url(#clip0_603_22)">
<path d="M25.6318 0H34.44V3.68317H29.315V7.36633H34.44V11.0495H25.6318V0ZM36.1996 0H45.0112V3.20483H39.8862V3.84375H45.0112V11.2101H36.1996V7.84808H41.3246V7.20575H36.1996V0ZM46.7742 0H55.5789V3.20483H50.4539V3.84375H55.5789V11.2101H46.7742V7.84808H51.8992V7.20575H46.7742V0Z" fill="black"/>
<path fill-rule="evenodd" clip-rule="evenodd" d="M40.9693 82L17.2439 75.4127L10.25 16.1164H71.75L64.7595 75.4058L40.9693 82ZM24.0773 42.9578L24.7298 50.2284H49.9346L49.0907 59.6584L40.9795 61.8519H40.9727L32.8752 59.6653L32.3558 53.8672H25.0544L26.0726 65.2857L40.9693 69.4198L55.8898 65.2857L57.7075 44.9087L57.8852 42.9578L59.1972 28.2353H22.7687L23.4315 35.5094H51.2295L50.5667 42.9578H24.0773Z" fill="black"/>
</g>
<defs>
<clipPath id="clip0_603_22">
<rect width="82" height="82" fill="white"/>
</clipPath>
</defs>
</svg>
