<svg width="92" height="92" viewBox="0 0 92 92" fill="none" xmlns="http://www.w3.org/2000/svg">
<path d="M46.0001 23C35.7651 23 29.4017 28.0983 26.8334 38.3333C30.6667 33.235 35.1517 31.3183 40.2501 32.5833C43.1634 33.3117 45.2717 35.42 47.5717 37.7583C51.3284 41.5917 55.5834 46 65.1667 46C75.4017 46 81.7651 40.9017 84.3334 30.6667C80.5001 35.765 76.0151 37.6817 70.9167 36.4167C68.0034 35.6883 65.9334 33.58 63.5951 31.2417C59.8384 27.4083 55.5834 23 46.0001 23ZM26.8334 46C16.5984 46 10.2351 51.0983 7.66675 61.3333C11.5001 56.235 15.9851 54.3183 21.0834 55.5833C23.9967 56.3117 26.0667 58.42 28.4051 60.7583C32.1617 64.5917 36.4167 69 46.0001 69C56.2351 69 62.5984 63.9017 65.1667 53.6667C61.3334 58.765 56.8484 60.6817 51.7501 59.4167C48.8367 58.6883 46.7667 56.58 44.4284 54.2417C40.6717 50.4083 36.4167 46 26.8334 46Z" fill="black"/>
</svg>
